<svg width="146" height="200" viewBox="0 0 146 200" fill="none" xmlns="http://www.w3.org/2000/svg">
<path fill-rule="evenodd" clip-rule="evenodd" d="M66 50.2093C34.6354 50.2093 9.2093 75.6354 9.2093 107C9.2093 138.364 34.6354 163.791 66 163.791C97.3644 163.791 122.791 138.364 122.791 107C122.791 75.6354 97.3644 50.2093 66 50.2093ZM0 107C0 70.5492 29.5492 41 66 41C102.451 41 132 70.5492 132 107C132 143.451 102.451 173 66 173C29.5492 173 0 143.451 0 107ZM65.6464 71.6977H66.3536C71.8399 71.6974 76.4765 71.6972 80.1694 72.2618C84.1411 72.869 87.6584 74.2119 90.4194 77.3515C93.1054 80.406 94.1829 84.1528 94.6814 88.3671C95.1628 92.4407 95.1628 97.6034 95.1628 103.938V119.805C95.1628 124.348 95.1628 128.092 94.892 130.947C94.6317 133.684 94.0515 136.828 91.8695 139.09C90.2358 140.783 88.0876 141.931 85.6969 142.238C82.3226 142.673 79.5235 140.823 77.5239 139.229C75.4137 137.548 72.9064 135.052 69.9311 132.092L69.7316 131.893C68.2778 130.446 67.4133 129.593 66.7251 129.027C66.3862 128.748 66.1995 128.634 66.1271 128.595C66.0424 128.581 65.9576 128.581 65.8729 128.595C65.8005 128.634 65.6138 128.748 65.2749 129.027C64.5867 129.593 63.7222 130.446 62.2684 131.893L62.0689 132.092C59.0936 135.052 56.5863 137.548 54.4761 139.229C52.4762 140.823 49.6775 142.673 46.3029 142.238C43.9126 141.931 41.7639 140.783 40.1308 139.09C37.9485 136.828 37.3682 133.684 37.1082 130.947C36.837 128.092 36.8371 124.348 36.8372 119.805V103.938C36.8371 97.6034 36.837 92.4407 37.3186 88.3671C37.8168 84.1528 38.8944 80.406 41.5804 77.3515C44.3413 74.2119 47.8591 72.869 51.8306 72.2618C55.5235 71.6972 60.1601 71.6974 65.6464 71.6977ZM53.2225 81.3653C50.5064 81.7806 49.3318 82.4827 48.4962 83.4329C47.5858 84.4683 46.8651 86.0576 46.4642 89.4483C46.0541 92.9172 46.0465 97.5322 46.0465 104.23V119.558C46.0465 124.409 46.0515 127.71 46.2763 130.076C46.4685 132.1 46.7756 132.681 46.8008 132.739C46.9591 132.893 47.1115 132.987 47.245 133.041C47.4635 132.933 47.9352 132.666 48.737 132.027C50.3991 130.702 52.5446 128.577 55.7728 125.365L55.906 125.233C57.1812 123.963 58.3575 122.793 59.4246 121.915C60.5745 120.969 61.978 120.032 63.7824 119.623C65.2448 119.292 66.7552 119.292 68.2176 119.623C70.022 120.032 71.4255 120.969 72.5754 121.915C73.6425 122.793 74.8188 123.963 76.094 125.233L76.2272 125.365C79.4554 128.577 81.6012 130.702 83.2631 132.027C84.065 132.666 84.5365 132.933 84.755 133.041C84.8883 132.987 85.0411 132.893 85.1995 132.739C85.2241 132.681 85.5317 132.1 85.7239 130.076C85.9486 127.71 85.9535 124.409 85.9535 119.558V104.23C85.9535 97.5322 85.9461 92.9172 85.536 89.4483C85.1351 86.0576 84.4143 84.4683 83.5038 83.4329C82.6682 82.4827 81.4937 81.7806 78.7776 81.3653C75.8619 80.9196 71.9357 80.907 66 80.907C60.0643 80.907 56.1381 80.9196 53.2225 81.3653Z" fill="#7C3AED"/>
<path d="M117.509 81.4468C123.984 74.9469 135.305 70.4835 145.611 68.2586C135.294 66.0735 123.951 61.6624 117.449 55.1873C110.951 48.7145 106.488 37.3895 104.259 27.0865C102.077 37.4029 97.6637 48.7445 91.1883 55.2444C84.7156 61.7444 73.3916 66.2078 63.0865 68.4361C73.4029 70.6177 84.7456 75.0323 91.2478 81.5039C97.7478 87.9767 102.209 99.3017 104.438 109.605C106.62 99.2907 111.036 87.9491 117.509 81.4468Z" fill="#EC4899" stroke="black" stroke-width="0.00106055"/>
</svg>
