<svg width="500" height="200" viewBox="0 0 500 200" fill="none" xmlns="http://www.w3.org/2000/svg">
<path d="M176.906 111.858V97.6454H191.867C193.719 97.6454 195.393 97.2892 196.889 96.5768C198.456 95.7931 199.703 94.6533 200.629 93.1573C201.555 91.6612 202.018 89.809 202.018 87.6006C202.018 85.3921 201.555 83.5399 200.629 82.0439C199.703 80.4766 198.456 79.3368 196.889 78.6244C195.393 77.8407 193.719 77.4489 191.867 77.4489H176.906V63.2366H195.179C200.023 63.2366 204.405 64.234 208.323 66.2287C212.241 68.1521 215.34 70.9305 217.62 74.5637C219.899 78.1257 221.039 82.4713 221.039 87.6006C221.039 92.5874 219.899 96.933 217.62 100.637C215.34 104.271 212.241 107.049 208.323 108.972C204.405 110.896 200.023 111.858 195.179 111.858H176.906ZM161.732 139V63.2366H180.86V139H161.732ZM240.818 140.175C235.19 140.175 230.168 139 225.751 136.649C221.405 134.227 217.95 130.95 215.386 126.818C212.821 122.615 211.539 117.913 211.539 112.713C211.539 107.512 212.785 102.881 215.279 98.8208C217.843 94.6889 221.334 91.4475 225.751 89.0966C230.168 86.6745 235.155 85.4634 240.711 85.4634C246.268 85.4634 251.219 86.6745 255.565 89.0966C259.982 91.4475 263.472 94.6889 266.037 98.8208C268.602 102.881 269.884 107.512 269.884 112.713C269.884 117.913 268.602 122.615 266.037 126.818C263.544 130.95 260.089 134.227 255.672 136.649C251.326 139 246.375 140.175 240.818 140.175ZM240.711 123.612C242.777 123.612 244.558 123.185 246.054 122.33C247.622 121.404 248.833 120.121 249.688 118.483C250.542 116.844 250.97 114.957 250.97 112.819C250.97 110.682 250.507 108.83 249.581 107.263C248.726 105.624 247.55 104.378 246.054 103.523C244.558 102.597 242.777 102.133 240.711 102.133C238.717 102.133 236.936 102.597 235.368 103.523C233.801 104.449 232.59 105.731 231.735 107.37C230.88 108.937 230.453 110.789 230.453 112.926C230.453 114.992 230.88 116.844 231.735 118.483C232.59 120.121 233.801 121.404 235.368 122.33C236.936 123.185 238.717 123.612 240.711 123.612ZM296.602 140.069C293.254 140.069 290.155 139.463 287.305 138.252C284.456 137.041 282.105 135.402 280.253 133.336C278.4 131.199 277.261 128.741 276.833 125.963V100.531C277.261 97.7522 278.4 95.2588 280.253 93.0504C282.176 90.7707 284.527 88.9898 287.305 87.7074C290.155 86.3539 293.254 85.6771 296.602 85.6771C301.66 85.6771 306.113 86.8526 309.96 89.2035C313.807 91.4831 316.799 94.6889 318.936 98.8208C321.144 102.953 322.248 107.655 322.248 112.926C322.248 118.127 321.144 122.793 318.936 126.925C316.799 130.986 313.807 134.191 309.96 136.542C306.113 138.893 301.66 140.069 296.602 140.069ZM265.506 161.12V86.7457H284.1V99.8894L281.001 112.499L283.672 125.215V161.12H265.506ZM293.076 123.505C295.142 123.505 296.958 123.042 298.526 122.116C300.093 121.19 301.304 119.943 302.159 118.376C303.014 116.738 303.441 114.885 303.441 112.819C303.441 110.753 303.014 108.937 302.159 107.37C301.304 105.802 300.093 104.556 298.526 103.63C296.958 102.703 295.177 102.24 293.183 102.24C291.259 102.24 289.514 102.703 287.947 103.63C286.379 104.484 285.168 105.731 284.313 107.37C283.458 108.937 283.031 110.753 283.031 112.819C283.031 114.885 283.458 116.738 284.313 118.376C285.168 119.943 286.344 121.19 287.84 122.116C289.407 123.042 291.152 123.505 293.076 123.505ZM319.741 139V62.7023H329.359V139H319.741ZM354.864 140.069C349.877 140.069 345.389 138.893 341.4 136.542C337.41 134.191 334.24 131.021 331.889 127.032C329.538 122.971 328.363 118.447 328.363 113.461C328.363 108.545 329.538 104.128 331.889 100.21C334.24 96.2206 337.41 93.0504 341.4 90.6995C345.389 88.3486 349.877 87.1731 354.864 87.1731C359.78 87.1731 364.232 88.3486 368.221 90.6995C372.282 92.9792 375.488 96.1137 377.839 100.103C380.19 104.093 381.365 108.545 381.365 113.461C381.365 118.447 380.19 122.971 377.839 127.032C375.488 131.021 372.282 134.191 368.221 136.542C364.232 138.893 359.78 140.069 354.864 140.069ZM354.864 130.772C358.07 130.772 360.919 130.024 363.413 128.528C365.906 127.032 367.865 125.001 369.29 122.437C370.715 119.801 371.427 116.809 371.427 113.461C371.427 110.184 370.679 107.263 369.183 104.698C367.758 102.133 365.799 100.139 363.306 98.714C360.884 97.2179 358.07 96.4699 354.864 96.4699C351.658 96.4699 348.809 97.2179 346.315 98.714C343.822 100.139 341.863 102.133 340.438 104.698C339.013 107.263 338.301 110.184 338.301 113.461C338.301 116.809 339.013 119.801 340.438 122.437C341.863 125.001 343.822 127.032 346.315 128.528C348.809 130.024 351.658 130.772 354.864 130.772ZM401.498 161.334C396.298 161.334 391.667 160.372 387.606 158.448C383.617 156.525 380.411 153.818 377.989 150.327L384.187 144.022C386.253 146.658 388.711 148.653 391.56 150.007C394.41 151.431 397.794 152.144 401.712 152.144C406.912 152.144 411.009 150.755 414.001 147.976C417.064 145.269 418.596 141.6 418.596 136.97V124.36L420.305 112.926L418.596 101.599V88.2417H428.213V136.97C428.213 141.814 427.073 146.053 424.794 149.686C422.585 153.319 419.451 156.169 415.39 158.235C411.4 160.301 406.77 161.334 401.498 161.334ZM401.498 138.145C396.868 138.145 392.7 137.041 388.996 134.832C385.362 132.624 382.477 129.596 380.34 125.749C378.203 121.831 377.134 117.45 377.134 112.606C377.134 107.761 378.203 103.451 380.34 99.6757C382.477 95.8288 385.362 92.8011 388.996 90.5926C392.7 88.313 396.868 87.1731 401.498 87.1731C405.488 87.1731 409.014 87.9568 412.077 89.524C415.141 91.0913 417.563 93.2997 419.344 96.1493C421.196 98.9277 422.193 102.205 422.336 105.98V119.445C422.122 123.149 421.089 126.426 419.237 129.276C417.456 132.054 415.034 134.227 411.97 135.794C408.907 137.361 405.416 138.145 401.498 138.145ZM403.422 129.062C406.556 129.062 409.299 128.385 411.65 127.032C414.072 125.678 415.924 123.79 417.207 121.368C418.489 118.875 419.13 115.99 419.13 112.713C419.13 109.436 418.453 106.586 417.1 104.164C415.817 101.67 414.001 99.7469 411.65 98.3934C409.299 96.9686 406.521 96.2562 403.315 96.2562C400.109 96.2562 397.295 96.9686 394.873 98.3934C392.451 99.7469 390.527 101.67 389.102 104.164C387.749 106.586 387.072 109.4 387.072 112.606C387.072 115.811 387.749 118.661 389.102 121.154C390.527 123.648 392.451 125.607 394.873 127.032C397.366 128.385 400.216 129.062 403.422 129.062Z" fill="#F5F5F7"/>
<path fill-rule="evenodd" clip-rule="evenodd" d="M89 43.2093C57.6354 43.2093 32.2093 68.6354 32.2093 100C32.2093 131.364 57.6354 156.791 89 156.791C120.364 156.791 145.791 131.364 145.791 100C145.791 68.6354 120.364 43.2093 89 43.2093ZM23 100C23 63.5492 52.5492 34 89 34C125.451 34 155 63.5492 155 100C155 136.451 125.451 166 89 166C52.5492 166 23 136.451 23 100ZM88.6464 64.6977H89.3536C94.8399 64.6974 99.4765 64.6972 103.169 65.2618C107.141 65.869 110.658 67.2119 113.419 70.3515C116.105 73.406 117.183 77.1528 117.681 81.3671C118.163 85.4407 118.163 90.6034 118.163 96.9376V112.805C118.163 117.348 118.163 121.092 117.892 123.947C117.632 126.684 117.052 129.828 114.87 132.09C113.236 133.783 111.088 134.931 108.697 135.238C105.323 135.673 102.524 133.823 100.524 132.229C98.4137 130.548 95.9064 128.052 92.9311 125.092L92.7316 124.893C91.2778 123.446 90.4133 122.593 89.7251 122.027C89.3862 121.748 89.1995 121.634 89.1271 121.595C89.0424 121.581 88.9576 121.581 88.8729 121.595C88.8005 121.634 88.6138 121.748 88.2749 122.027C87.5867 122.593 86.7222 123.446 85.2684 124.893L85.0689 125.092C82.0936 128.052 79.5863 130.548 77.4761 132.229C75.4762 133.823 72.6775 135.673 69.3029 135.238C66.9126 134.931 64.7639 133.783 63.1308 132.09C60.9485 129.828 60.3682 126.684 60.1082 123.947C59.837 121.092 59.8371 117.348 59.8372 112.805V96.9376C59.8371 90.6034 59.837 85.4407 60.3186 81.3671C60.8168 77.1528 61.8944 73.406 64.5804 70.3515C67.3413 67.2119 70.8591 65.869 74.8306 65.2618C78.5235 64.6972 83.1601 64.6974 88.6464 64.6977ZM76.2225 74.3653C73.5064 74.7806 72.3318 75.4827 71.4962 76.4329C70.5858 77.4683 69.8651 79.0576 69.4642 82.4483C69.0541 85.9172 69.0465 90.5322 69.0465 97.2298V112.558C69.0465 117.409 69.0515 120.71 69.2763 123.076C69.4685 125.1 69.7756 125.681 69.8008 125.739C69.9591 125.893 70.1115 125.987 70.245 126.041C70.4635 125.933 70.9352 125.666 71.737 125.027C73.3991 123.702 75.5446 121.577 78.7728 118.365L78.906 118.233C80.1812 116.963 81.3575 115.793 82.4246 114.915C83.5745 113.969 84.978 113.032 86.7824 112.623C88.2448 112.292 89.7552 112.292 91.2176 112.623C93.022 113.032 94.4255 113.969 95.5754 114.915C96.6425 115.793 97.8188 116.963 99.094 118.233L99.2272 118.365C102.455 121.577 104.601 123.702 106.263 125.027C107.065 125.666 107.536 125.933 107.755 126.041C107.888 125.987 108.041 125.893 108.2 125.739C108.224 125.681 108.532 125.1 108.724 123.076C108.949 120.71 108.953 117.409 108.953 112.558V97.2298C108.953 90.5322 108.946 85.9172 108.536 82.4483C108.135 79.0576 107.414 77.4683 106.504 76.4329C105.668 75.4827 104.494 74.7806 101.778 74.3653C98.8619 73.9196 94.9357 73.907 89 73.907C83.0643 73.907 79.1381 73.9196 76.2225 74.3653Z" fill="#7C3AED"/>
<path d="M449.812 87.9566C456.287 81.4567 467.608 76.9933 477.914 74.7684C467.597 72.5833 456.254 68.1722 449.752 61.6971C443.254 55.2243 438.791 43.8993 436.562 33.5963C434.38 43.9127 429.967 55.2543 423.491 61.7542C417.019 68.2542 405.695 72.7176 395.389 74.9458C405.706 77.1275 417.049 81.5421 423.551 88.0137C430.051 94.4865 434.512 105.812 436.741 116.115C438.923 105.8 443.339 94.4589 449.812 87.9566Z" fill="#EC4899" stroke="black" stroke-width="0.00106055"/>
</svg>
