<svg width="16" height="16" viewBox="0 0 16 16" fill="none" xmlns="http://www.w3.org/2000/svg">
<g clip-path="url(#clip0_67_2)">
<path fill-rule="evenodd" clip-rule="evenodd" d="M8.23288 2.00924C4.79566 2.00924 2.00924 4.79566 2.00924 8.23288C2.00924 11.6701 4.79566 14.4565 8.23288 14.4565C11.6701 14.4565 14.4565 11.6701 14.4565 8.23288C14.4565 4.79566 11.6701 2.00924 8.23288 2.00924ZM1 8.23288C1 4.23827 4.23827 1 8.23288 1C12.2275 1 15.4658 4.23827 15.4658 8.23288C15.4658 12.2275 12.2275 15.4658 8.23288 15.4658C4.23827 15.4658 1 12.2275 1 8.23288ZM8.19412 4.36413H8.27163C8.87287 4.3641 9.38099 4.36408 9.78569 4.42595C10.2209 4.49249 10.6064 4.63966 10.909 4.98372C11.2033 5.31846 11.3214 5.72907 11.376 6.19091C11.4288 6.63734 11.4288 7.20312 11.4288 7.89727V9.63612C11.4288 10.134 11.4288 10.5444 11.3991 10.8572C11.3706 11.1572 11.307 11.5017 11.0679 11.7496C10.8889 11.9352 10.6534 12.0609 10.3914 12.0946C10.0217 12.1423 9.71491 11.9395 9.49577 11.7648C9.26452 11.5806 8.98974 11.3071 8.66369 10.9826L8.64182 10.9609C8.48249 10.8023 8.38776 10.7088 8.31234 10.6468C8.2752 10.6162 8.25474 10.6037 8.2468 10.5994C8.23752 10.5979 8.22823 10.5979 8.21895 10.5994C8.21101 10.6037 8.19056 10.6162 8.15342 10.6468C8.07799 10.7088 7.98326 10.8023 7.82393 10.9609L7.80207 10.9826C7.47602 11.3071 7.20123 11.5806 6.96998 11.7648C6.75082 11.9395 6.44411 12.1423 6.07429 12.0946C5.81234 12.0609 5.57687 11.9352 5.39789 11.7496C5.15874 11.5017 5.09515 11.1572 5.06665 10.8572C5.03693 10.5444 5.03695 10.134 5.03695 9.63612V7.89727C5.03694 7.20312 5.03693 6.63734 5.08971 6.19091C5.14431 5.72907 5.2624 5.31846 5.55676 4.98372C5.85932 4.63966 6.24483 4.49249 6.68007 4.42595C7.08477 4.36408 7.59288 4.3641 8.19412 4.36413ZM6.8326 5.42359C6.53495 5.4691 6.40622 5.54605 6.31465 5.65018C6.21488 5.76365 6.1359 5.93782 6.09197 6.3094C6.04703 6.68956 6.04619 7.19531 6.04619 7.9293V9.60914C6.04619 10.1407 6.04675 10.5025 6.07137 10.7618C6.09244 10.9835 6.1261 11.0472 6.12885 11.0536C6.1462 11.0705 6.16291 11.0807 6.17753 11.0867C6.20147 11.0749 6.25317 11.0456 6.34104 10.9755C6.52319 10.8304 6.75831 10.5975 7.11208 10.2455L7.12668 10.231C7.26643 10.0918 7.39534 9.96359 7.51228 9.86737C7.6383 9.76369 7.79211 9.66108 7.98985 9.61627C8.15012 9.57994 8.31563 9.57994 8.4759 9.61627C8.67365 9.66108 8.82745 9.76369 8.95347 9.86737C9.07041 9.96359 9.19932 10.0918 9.33907 10.231L9.35367 10.2455C9.70744 10.5975 9.94259 10.8304 10.1247 10.9755C10.2126 11.0456 10.2643 11.0749 10.2882 11.0867C10.3028 11.0807 10.3196 11.0705 10.3369 11.0536C10.3396 11.0472 10.3733 10.9835 10.3944 10.7618C10.419 10.5025 10.4196 10.1407 10.4196 9.60914V7.9293C10.4196 7.19531 10.4188 6.68956 10.3738 6.3094C10.3299 5.93782 10.2509 5.76365 10.1511 5.65018C10.0595 5.54605 9.93082 5.4691 9.63316 5.42359C9.31364 5.37475 8.88336 5.37337 8.23288 5.37337C7.58239 5.37337 7.15212 5.37475 6.8326 5.42359Z" fill="#7C3AED"/>
<path d="M13.283 5.27705C13.9106 4.64707 15.0079 4.21447 16.0067 3.99884C15.0068 3.78706 13.9074 3.35952 13.2772 2.73195C12.6475 2.1046 12.2149 1.00696 11.9988 0.00838325C11.7873 1.00827 11.3596 2.10751 10.732 2.73749C10.1047 3.36747 9.00712 3.80007 8.00834 4.01604C9.00822 4.22748 10.1076 4.65535 10.7378 5.28259C11.3678 5.90994 11.8001 7.00758 12.0162 8.00616C12.2277 7.00651 12.6556 5.90727 13.283 5.27705Z" fill="#EC4899" stroke="black" stroke-width="0.00106055"/>
</g>
<defs>
<clipPath id="clip0_67_2">
<rect width="16" height="16" fill="white"/>
</clipPath>
</defs>
</svg>
