<svg width="18" height="18" viewBox="0 0 48 48" xmlns="http://www.w3.org/2000/svg">
  <path fill="#EA4335" d="M24 9.5c3.54 0 6.71 1.22 9.21 3.6l6.85-6.85C35.9 2.38 30.47 0 24 0 14.64 0 6.4 5.38 2.52 13.22l7.98 6.19C12.43 13.4 17.74 9.5 24 9.5z"></path>
  <path fill="#4285F4" d="M46.5 24c0-1.64-.15-3.22-.43-4.75H24v9.01h12.7c-.55 2.97-2.19 5.49-4.65 7.19l7.5 5.82C43.91 37.09 46.5 30.98 46.5 24z"></path>
  <path fill="#FBBC05" d="M10.5 28.41c-.5-1.47-.78-3.04-.78-4.66s.28-3.19.78-4.66l-7.98-6.19C.92 16.16 0 19.97 0 23.75s.92 7.59 2.52 10.85l7.98-6.19z"></path>
  <path fill="#34A853" d="M24 48c6.48 0 11.91-2.13 15.88-5.81l-7.5-5.82c-2.09 1.41-4.76 2.24-8.38 2.24-6.26 0-11.57-3.9-13.5-9.41l-7.98 6.19C6.4 42.62 14.64 48 24 48z"></path>
</svg>
